# xmcd
#
# Track frame offsets:
#	150
#	12322
#	25827
#	38320
#	51725
#	63905
#	77877
#	92885
#	106412
#	118325
#	132712
#	147027
#	159950
#	173137
#	186722
#	199422
#	212772
#	224697
#	237462
#	250705
#	264350
#	275577
#	289682
#	302252
#	316240
#
# Disc length: 4389 seconds
#
# Revision: 0
# Processed by: cddbd v1.5.2PL0 Copyright (c) Steve Scherf et al.
# Submitted via: audiograbber 1.83.01
#
DISCID=7a112319
DTITLE=Hank Snow (+ track dates) - Wanderin' On
DYEAR=2003
DGENRE=Country
TTITLE0=Wanderin' On (1941)
TTITLE1=Prisoned Cowboy (1936)
TTITLE2=Lonesome Blue Yodel (1936)
TTITLE3=My San Antonio Mama (1938)
TTITLE4=My Little Swiss Maiden (1938)
TTITLE5=The Blue Velvet Band (1938)
TTITLE6=Answer to 'The Blue Velvet Band' (1941)
TTITLE7=The Hobo's Last Ride (1938)
TTITLE8=There's a Picture on Pinto's Bridle (1939)
TTITLE9=Broken Wedding Ring (1941)
TTITLE10=Galveston Rose (1942)
TTITLE11=Let's Pretend (1942)
TTITLE12=We'll Never Say Goodbye, Just Say So Long (1943)
TTITLE13=When My Blue Moon Turns to Gold Again (1943)
TTITLE14=Blue Ranger (1945)
TTITLE15=Just a Faded Petal from a Beautiful Bouquet (1945)
TTITLE16=Brand on my Heart (1945)
TTITLE17=On That Old Hawaiian Shore With You (1945)
TTITLE18=Linda Lou (1945)
TTITLE19=My Mother (1945)
TTITLE20=My Filipino Rose (1948)
TTITLE21=The Night I Stole Old Sammy Morgan's Gin (1948)
TTITLE22=Out on the Open Range (1948)
TTITLE23=Journey My Baby Back Home (1948)
TTITLE24=I Knew That We'd Meet Again (1948)
EXTD=Track dates supplied.
EXTT0=
EXTT1=
EXTT2=
EXTT3=
EXTT4=
EXTT5=
EXTT6=
EXTT7=
EXTT8=
EXTT9=
EXTT10=
EXTT11=
EXTT12=
EXTT13=
EXTT14=
EXTT15=
EXTT16=
EXTT17=
EXTT18=
EXTT19=
EXTT20=
EXTT21=
EXTT22=
EXTT23=
EXTT24=
PLAYORDER=
